HIERARCHY
ROOT Hips
{
	OFFSET 0.000000 0.000000 0.000000
	CHANNELS 6 Xposition Yposition Zposition Zrotation Yrotation Xrotation 
	JOINT LowerBack
	{
		OFFSET 0.000000 0.000000 0.000000
		CHANNELS 3 Zrotation Yrotation Xrotation
		JOINT Spine
		{
			OFFSET 0.028270 2.035590 -0.193380
			CHANNELS 3 Zrotation Yrotation Xrotation
			JOINT Spine1
			{
				OFFSET 0.056720 2.048850 -0.042750
				CHANNELS 3 Zrotation Yrotation Xrotation
				JOINT Neck
				{
					OFFSET 0.000000 0.000000 0.000000
					CHANNELS 3 Zrotation Yrotation Xrotation
					JOINT Neck1
					{
						OFFSET -0.054170 1.746240 0.172020
						CHANNELS 3 Zrotation Yrotation Xrotation
						JOINT Head
						{
							OFFSET 0.104070 1.761360 -0.123970
							CHANNELS 3 Zrotation Yrotation Xrotation
							End Site
							{
								OFFSET 0.000000 0.000000 0.000000
							}
						}
					}
				}
				JOINT LeftShoulder
				{
					OFFSET 0.000000 0.000000 0.000000
					CHANNELS 3 Zrotation Yrotation Xrotation
					JOINT LeftArm
					{
						OFFSET 3.362410 1.200890 -0.311210
						CHANNELS 3 Zrotation Yrotation Xrotation
						JOINT LeftForeArm
						{
							OFFSET 4.983000 -0.000000 -0.000000
							CHANNELS 3 Zrotation Yrotation Xrotation
							JOINT LeftHand
							{
								OFFSET 3.483560 -0.000000 -0.000000
								CHANNELS 3 Zrotation Yrotation Xrotation
								JOINT LeftFingerBase
								{
									OFFSET 0.000000 0.000000 0.000000
									CHANNELS 3 Zrotation Yrotation Xrotation
									JOINT LeftHandIndex1
									{
										OFFSET 0.715260 -0.000000 -0.000000
										CHANNELS 3 Zrotation Yrotation Xrotation
										End Site
										{
											OFFSET 0.000000 0.000000 0.000000
										}
									}
								}
								JOINT LThumb
								{
									OFFSET 0.000000 0.000000 0.000000
									CHANNELS 3 Zrotation Yrotation Xrotation
									End Site
									{
										OFFSET 0.000000 0.000000 0.000000
									}
								}
							}
						}
					}
				}
				JOINT RightShoulder
				{
					OFFSET 0.000000 0.000000 0.000000
					CHANNELS 3 Zrotation Yrotation Xrotation
					JOINT RightArm
					{
						OFFSET -3.136600 1.374050 -0.404650
						CHANNELS 3 Zrotation Yrotation Xrotation
						JOINT RightForeArm
						{
							OFFSET -5.241900 -0.000000 -0.000000
							CHANNELS 3 Zrotation Yrotation Xrotation
							JOINT RightHand
							{
								OFFSET -3.444170 -0.000000 -0.000000
								CHANNELS 3 Zrotation Yrotation Xrotation
								JOINT RightFingerBase
								{
									OFFSET 0.000000 0.000000 0.000000
									CHANNELS 3 Zrotation Yrotation Xrotation
									JOINT RightHandIndex1
									{
										OFFSET -0.622530 -0.000000 -0.000000
										CHANNELS 3 Zrotation Yrotation Xrotation
										End Site
										{
											OFFSET 0.000000 0.000000 0.000000
										}
									}
								}
								JOINT RThumb
								{
									OFFSET 0.000000 0.000000 0.000000
									CHANNELS 3 Zrotation Yrotation Xrotation
									End Site
									{
										OFFSET 0.000000 0.000000 0.000000
									}
								}
							}
						}
					}
				}
			}
		}
	}
}
}
MOTION
Frames: 10
Frame Time: 0.008333
-20.721693 16.823160 -0.592968 113.930077 87.462809 134.306317 -5.664112 2.033569 -10.133690 -2.459482 2.270949 -4.872754 -7.025102 2.222044 1.147769 11.573768 -6.315506 -9.230759 -3.559111 -0.269568 -0.435150 0.000000 0.000000 0.000000 -1.059236 21.167009 2.340896 -56.161694 18.123473 -19.004498 -2.932122 -43.798874 0.012570 9.674418 -0.949769 -0.076621 -0.161794 -0.048549 -0.000000 0.000000 0.000000 0.000000 0.000000 0.000000 0.000000 17.512922 2.865714 -0.400667 76.519406 22.272837 40.171866 1.177103 71.029475 0.028277 3.166073 7.136407 0.211239 0.005096 -0.438182 -0.000000 0.000000 0.000000 0.000000 0.000000 0.000000 0.000000 
-20.509552 16.846640 -0.593435 112.560288 87.121216 132.644065 -6.007507 1.942506 -10.010112 -2.534783 2.224924 -4.858354 -7.068700 2.175778 1.091252 11.625322 -6.356260 -9.223010 -3.587261 -0.271754 -0.435353 0.000000 0.000000 0.000000 -0.946850 21.023852 2.315990 -55.829333 17.713862 -18.766325 -2.927832 -43.985522 0.012229 9.691454 -0.957874 -0.077709 -0.162956 -0.046050 -0.000000 0.000000 0.000000 0.000000 0.000000 0.000000 0.000000 17.747389 2.776314 -0.442777 76.953013 21.451465 39.617685 1.220483 69.933903 0.026899 2.982322 7.235769 0.201437 0.006878 -0.434114 -0.000000 0.000000 0.000000 0.000000 0.000000 0.000000 0.000000 
-20.299154 16.868054 -0.595998 111.759593 86.778428 131.548278 -6.315069 1.844970 -9.872386 -2.599786 2.168005 -4.839059 -7.103492 2.118317 1.041758 11.661393 -6.404963 -9.216493 -3.616090 -0.273931 -0.435724 0.000000 0.000000 0.000000 -0.848058 20.861567 2.288112 -55.584535 17.263003 -18.519772 -2.921454 -44.168703 0.011841 9.704875 -0.966652 -0.078797 -0.163834 -0.043323 -0.000000 0.000000 0.000000 0.000000 0.000000 0.000000 0.000000 17.973452 2.664627 -0.480196 77.338897 20.640990 39.006597 1.262509 68.785754 0.025456 2.797102 7.306432 0.190528 0.008675 -0.428547 -0.000000 0.000000 0.000000 0.000000 0.000000 0.000000 0.000000 
-20.090810 16.887211 -0.600419 111.375563 86.434779 130.867563 -6.588761 1.740393 -9.719172 -2.654910 2.099674 -4.814480 -7.129848 2.049216 0.999710 11.685643 -6.465255 -9.212666 -3.645582 -0.276081 -0.436705 0.000000 0.000000 0.000000 -0.760145 20.677514 2.257942 -55.429338 16.772551 -18.258554 -2.912722 -44.351569 0.011406 9.717200 -0.975684 -0.079887 -0.164407 -0.040352 -0.000000 0.000000 0.000000 0.000000 0.000000 0.000000 0.000000 18.194888 2.527384 -0.511041 77.674578 19.851171 38.340513 1.303501 67.592343 0.024020 2.620596 7.344547 0.179111 0.010379 -0.421527 -0.000000 0.000000 0.000000 0.000000 0.000000 0.000000 0.000000 
-19.884909 16.904077 -0.607013 111.383443 86.105152 130.585406 -6.812013 1.630957 -9.557737 -2.696773 2.020192 -4.785856 -7.148275 1.968729 0.965357 11.698136 -6.538505 -9.213237 -3.675305 -0.278170 -0.438589 0.000000 0.000000 0.000000 -0.689855 20.473949 2.224982 -55.360422 16.246015 -17.971987 -2.901371 -44.538222 0.010934 9.733120 -0.984526 -0.081077 -0.164685 -0.037190 -0.000000 0.000000 0.000000 0.000000 0.000000 0.000000 0.000000 18.407798 2.364457 -0.534651 77.958463 19.083592 37.617690 1.343855 66.361827 0.022655 2.461902 7.348665 0.168088 0.011890 -0.413108 0.000000 0.000000 0.000000 0.000000 0.000000 0.000000 0.000000 
-19.681266 16.918783 -0.615765 111.705943 85.797393 130.629946 -6.978445 1.517209 -9.392732 -2.724186 1.929418 -4.754076 -7.159826 1.876728 0.938554 11.701359 -6.626328 -9.219594 -3.705140 -0.280191 -0.441692 0.000000 0.000000 0.000000 -0.641537 20.252289 2.189053 -55.371756 15.686306 -17.649443 -2.887204 -44.732119 0.010434 9.757835 -0.992424 -0.082265 -0.164667 -0.033885 -0.000000 0.000000 0.000000 0.000000 0.000000 0.000000 0.000000 18.613014 2.175286 -0.550393 78.190782 18.338922 36.836813 1.384049 65.101943 0.021393 2.324904 7.318850 0.157860 0.013197 -0.403420 0.000000 0.000000 0.000000 0.000000 0.000000 0.000000 0.000000 
-19.480216 16.931604 -0.626552 112.256050 85.516868 130.919946 -7.085349 1.399460 -9.229995 -2.736825 1.827479 -4.720381 -7.165790 1.773335 0.918851 11.698481 -6.729521 -9.232613 -3.735067 -0.282149 -0.446207 0.000000 0.000000 0.000000 -0.619654 20.014298 2.149879 -55.454766 15.097804 -17.280810 -2.870066 -44.936556 0.009915 9.796637 -0.998537 -0.083354 -0.164361 -0.030495 -0.000000 0.000000 0.000000 0.000000 0.000000 0.000000 0.000000 18.812662 1.960318 -0.557929 78.372786 17.615883 35.995874 1.424625 63.819206 0.020243 2.208664 7.257520 0.148528 0.014365 -0.392649 0.000000 0.000000 0.000000 0.000000 0.000000 0.000000 0.000000 
-19.281326 16.942955 -0.639168 112.936243 85.268052 131.363739 -7.133233 1.277803 -9.076295 -2.735144 1.714703 -4.686233 -7.167743 1.658881 0.905808 11.693051 -6.848469 -9.252867 -3.765206 -0.284070 -0.452277 0.000000 0.000000 0.000000 -0.627961 19.762603 2.107114 -55.598914 14.484823 -16.857091 -2.849881 -45.154136 0.009383 9.854418 -1.001327 -0.084441 -0.163776 -0.027083 -0.000000 0.000000 0.000000 0.000000 0.000000 0.000000 0.000000 19.010217 1.720428 -0.557292 78.506491 16.911977 35.093665 1.466007 62.519605 0.019185 2.106328 7.167961 0.139694 0.015540 -0.381007 -0.000000 0.000000 0.000000 0.000000 0.000000 0.000000 0.000000 
-19.084682 16.953334 -0.653303 113.644738 85.054841 131.865816 -7.124251 1.152518 -8.939241 -2.720008 1.591827 -4.653310 -7.167195 1.534108 0.899016 11.688335 -6.982379 -9.280191 -3.795687 -0.285988 -0.459847 0.000000 0.000000 0.000000 -0.669903 19.500640 2.060312 -55.793740 13.850981 -16.371204 -2.826693 -45.386118 0.008843 9.934560 -0.999152 -0.085228 -0.162930 -0.023707 -0.000000 0.000000 0.000000 0.000000 0.000000 0.000000 0.000000 19.208912 1.457595 -0.548995 78.594514 16.223575 34.129366 1.508450 61.208535 0.018177 2.006883 7.054948 0.130860 0.016907 -0.368719 -0.000000 0.000000 0.000000 0.000000 0.000000 0.000000 0.000000 
-18.889626 16.963334 -0.668669 114.276716 84.881188 132.326689 -7.062257 1.024128 -8.826082 -2.692680 1.459993 -4.623227 -7.165563 1.400181 0.898243 11.686884 -7.129867 -9.313999 -3.826602 -0.287938 -0.468763 0.000000 0.000000 0.000000 -0.747387 19.232731 2.009059 -56.029330 13.199211 -15.818635 -2.800730 -45.632089 0.008293 10.037636 -0.990354 -0.085515 -0.161849 -0.020410 -0.000000 0.000000 0.000000 0.000000 0.000000 0.000000 0.000000 19.411271 1.174288 -0.533934 78.639603 15.547034 33.104113 1.551958 59.891115 0.017164 1.895452 6.923664 0.121127 0.018686 -0.356002 -0.000000 0.000000 0.000000 0.000000 0.000000 0.000000 0.000000 
